<svg id="veelo" xmlns="http://www.w3.org/2000/svg" viewBox="0 0 1072.32 721" fill="none">
<path d="M1181.32,288H650.47A25,25,0,0,0,630,298.66L536.63,432,323.7,736.09c-14,20-45.48,10.1-45.48-14.34V313a25,25,0,0,0-25-25H160a25,25,0,0,0-25,25V983a25,25,0,0,0,25,25H295.14a25,25,0,0,0,20.47-10.66L704,442.66A25,25,0,0,1,724.48,432h456.84a25,25,0,0,0,25-25V313A25,25,0,0,0,1181.32,288Z" transform="translate(-134.5 -287.5)" fill="currentColor"/>
<path d="M1008,601v94a25,25,0,0,1-25,25H732a25,25,0,0,1-20.47-39.34l65.82-94A25,25,0,0,1,797.8,576H983A25,25,0,0,1,1008,601Z" transform="translate(-134.5 -287.5)" fill="currentColor"/>
<path d="M936,889v94a25,25,0,0,1-25,25H530.32a25,25,0,0,1-20.47-39.34l65.82-94A25,25,0,0,1,596.14,864H911A25,25,0,0,1,936,889Z" transform="translate(-134.5 -287.5)" fill="currentColor"/>
</svg>