<svg id="arc-system" xmlns="http://www.w3.org/2000/svg" xmlns:xlink="http://www.w3.org/1999/xlink" viewBox="0 0 224 140"><defs><clipPath id="clip-path"><path d="M220,10.5v119a8,8,0,0,1-8,8H12a8,8,0,0,1-8-8v-1.87L22,116.5l16.2-10L59,93.68l12-7.41,16.28-10,19.44-12L120,56l12-7.4L157.38,33l19.44-12,6.58-4.06,3.33-2.06,5.2-3.21L199.5,7,206,3l.73-.45H212A8,8,0,0,1,220,10.5Z" fill="none"/></clipPath></defs><rect x="4" y="2.5" width="216" height="135" rx="8" fill="#f4f4f4"/><rect x="9" y="7.5" width="50" height="125" rx="6" fill="#e2e2e2"/><rect x="71" y="7.5" width="137" height="13.45" rx="6" fill="#e2e2e2"/><rect x="71" y="32.95" width="49" height="31.28" rx="8" fill="#e2e2e2"/><rect x="14.73" y="15.95" width="38.54" height="10" rx="5" fill="#cecece"/><rect x="75.06" y="11.22" width="6" height="6" rx="3" fill="#cecece"/><rect x="194.28" y="11.22" width="9.53" height="6" rx="3" fill="#cecece"/><rect x="180.36" y="11.22" width="9.53" height="6" rx="3" fill="#cecece"/><rect x="166.43" y="11.22" width="9.53" height="6" rx="3" fill="#cecece"/><rect x="14.73" y="38.58" width="38.54" height="10" rx="5" fill="#cecece"/><rect x="14.73" y="61.22" width="38.54" height="10" rx="5" fill="#cecece"/><rect x="14.73" y="83.86" width="38.54" height="10" rx="5" fill="#cecece"/><rect x="14.73" y="106.5" width="38.54" height="10" rx="5" fill="#cecece"/><rect x="159" y="76.22" width="49" height="31.28" rx="8" fill="#e2e2e2"/><rect x="132" y="32.95" width="76" height="31.28" rx="8" fill="#e2e2e2"/><rect x="71" y="76.22" width="76" height="31.28" rx="8" fill="#e2e2e2"/><g clip-path="url(#clip-path)"><rect x="4" y="2.5" width="216" height="135" rx="8" fill="#353535"/><rect x="9" y="7.5" width="50" height="125" rx="6" fill="#4c4c4c"/><rect x="71" y="7.5" width="137" height="13.45" rx="6" fill="#4c4c4c"/><rect x="71" y="32.95" width="49" height="31.28" rx="8" fill="#4c4c4c"/><rect x="14.73" y="15.95" width="38.54" height="10" rx="5" fill="#5e5e5e"/><rect x="75.06" y="11.22" width="6" height="6" rx="3" fill="#5e5e5e"/><rect x="194.28" y="11.22" width="9.53" height="6" rx="3" fill="#5e5e5e"/><rect x="180.36" y="11.22" width="9.53" height="6" rx="3" fill="#5e5e5e"/><rect x="166.43" y="11.22" width="9.53" height="6" rx="3" fill="#5e5e5e"/><rect x="14.73" y="38.58" width="38.54" height="10" rx="5" fill="#5e5e5e"/><rect x="14.73" y="61.22" width="38.54" height="10" rx="5" fill="#5e5e5e"/><rect x="14.73" y="83.86" width="38.54" height="10" rx="5" fill="#5e5e5e"/><rect x="14.73" y="106.5" width="38.54" height="10" rx="5" fill="#5e5e5e"/><rect x="159" y="76.22" width="49" height="31.28" rx="8" fill="#4c4c4c"/><rect x="132" y="32.95" width="76" height="31.28" rx="8" fill="#4c4c4c"/><rect x="71" y="76.22" width="76" height="31.28" rx="8" fill="#4c4c4c"/></g></svg>