<svg id="arc-dark" xmlns="http://www.w3.org/2000/svg" viewBox="0 0 224 140"><rect x="4" y="2.5" width="216" height="135" rx="8" fill="#353535"/><rect x="9" y="7.5" width="50" height="125" rx="6" fill="#4c4c4c"/><rect x="71" y="7.5" width="137" height="13.45" rx="6" fill="#4c4c4c"/><rect x="71" y="32.95" width="49" height="31.28" rx="8" fill="#4c4c4c"/><rect x="14.73" y="15.95" width="38.54" height="10" rx="5" fill="#5e5e5e"/><rect x="75.06" y="11.22" width="6" height="6" rx="3" fill="#5e5e5e"/><rect x="194.28" y="11.22" width="9.53" height="6" rx="3" fill="#5e5e5e"/><rect x="180.36" y="11.22" width="9.53" height="6" rx="3" fill="#5e5e5e"/><rect x="166.43" y="11.22" width="9.53" height="6" rx="3" fill="#5e5e5e"/><rect x="14.73" y="38.58" width="38.54" height="10" rx="5" fill="#5e5e5e"/><rect x="14.73" y="61.22" width="38.54" height="10" rx="5" fill="#5e5e5e"/><rect x="14.73" y="83.86" width="38.54" height="10" rx="5" fill="#5e5e5e"/><rect x="14.73" y="106.5" width="38.54" height="10" rx="5" fill="#5e5e5e"/><rect x="159" y="76.22" width="49" height="31.28" rx="8" fill="#4c4c4c"/><rect x="132" y="32.95" width="76" height="31.28" rx="8" fill="#4c4c4c"/><rect x="71" y="76.22" width="76" height="31.28" rx="8" fill="#4c4c4c"/></svg>