<svg id="classic-mixed" xmlns="http://www.w3.org/2000/svg" viewBox="0 0 224 140"><rect x="4" y="2.5" width="216" height="135" rx="8" fill="#eaeaea"/><path d="M12,2.5H59a0,0,0,0,1,0,0v135a0,0,0,0,1,0,0H12a8,8,0,0,1-8-8V10.5a8,8,0,0,1,8-8Z" fill="#424242"/><path d="M59,2.5H212a8,8,0,0,1,8,8V20.95a0,0,0,0,1,0,0H59a0,0,0,0,1,0,0V2.5A0,0,0,0,1,59,2.5Z" fill="#f4f4f4"/><rect x="71" y="32.95" width="49" height="31.28" rx="8" fill="#f4f4f4" stroke="#e2e2e2" stroke-miterlimit="10"/><rect x="12.23" y="15.95" width="38.54" height="10" rx="5" fill="#545454"/><rect x="71" y="6.95" width="10" height="10" rx="5" fill="#e2e2e2"/><rect x="191.91" y="6.95" width="16.09" height="10" rx="5" fill="#e2e2e2"/><rect x="171.57" y="6.95" width="16.09" height="10" rx="5" fill="#e2e2e2"/><rect x="151.22" y="6.95" width="16.09" height="10" rx="5" fill="#e2e2e2"/><rect x="12.23" y="38.58" width="38.54" height="10" rx="5" fill="#545454"/><rect x="12.23" y="61.22" width="38.54" height="10" rx="5" fill="#545454"/><rect x="12.23" y="83.86" width="38.54" height="10" rx="5" fill="#545454"/><rect x="12.23" y="106.5" width="38.54" height="10" rx="5" fill="#545454"/><rect x="159" y="76.22" width="49" height="31.28" rx="8" fill="#f4f4f4" stroke="#e2e2e2" stroke-miterlimit="10"/><rect x="132" y="32.95" width="76" height="31.28" rx="8" fill="#f4f4f4" stroke="#e2e2e2" stroke-miterlimit="10"/><rect x="71" y="76.22" width="76" height="31.28" rx="8" fill="#f4f4f4" stroke="#e2e2e2" stroke-miterlimit="10"/><line x1="59" y1="20.95" x2="220" y2="20.95" fill="none" stroke="#e2e2e2" stroke-miterlimit="10"/><line x1="59" y1="2.5" x2="59" y2="137.5" fill="none" stroke="#494949" stroke-miterlimit="10"/></svg>