<svg id="origin-dark" xmlns="http://www.w3.org/2000/svg" viewBox="0 0 224 140"><rect x="4" y="2.5" width="216" height="135" rx="8" fill="#353535"/><path d="M12,2.5H59a0,0,0,0,1,0,0v135a0,0,0,0,1,0,0H12a8,8,0,0,1-8-8V10.5a8,8,0,0,1,8-8Z" fill="#353535"/><path d="M59,2.95H212a8,8,0,0,1,8,8v10a0,0,0,0,1,0,0H59a0,0,0,0,1,0,0v-18A0,0,0,0,1,59,2.95Z" fill="#353535"/><rect x="71" y="32.95" width="49" height="31.28" rx="8" fill="none" stroke="#494949" stroke-miterlimit="10"/><rect x="12.23" y="15.95" width="38.54" height="10" rx="5" fill="#494949"/><rect x="71" y="6.95" width="10" height="10" rx="5" fill="#494949"/><rect x="191.91" y="6.95" width="16.09" height="10" rx="5" fill="#494949"/><rect x="171.57" y="6.95" width="16.09" height="10" rx="5" fill="#494949"/><rect x="151.22" y="6.95" width="16.09" height="10" rx="5" fill="#494949"/><rect x="12.23" y="38.58" width="38.54" height="10" rx="5" fill="#494949"/><rect x="12.23" y="61.22" width="38.54" height="10" rx="5" fill="#494949"/><rect x="12.23" y="83.86" width="38.54" height="10" rx="5" fill="#494949"/><rect x="12.23" y="106.5" width="38.54" height="10" rx="5" fill="#494949"/><rect x="159" y="76.22" width="49" height="31.28" rx="8" fill="none" stroke="#494949" stroke-miterlimit="10"/><rect x="132" y="32.95" width="76" height="31.28" rx="8" fill="none" stroke="#494949" stroke-miterlimit="10"/><rect x="71" y="76.22" width="76" height="31.28" rx="8" fill="none" stroke="#494949" stroke-miterlimit="10"/><line x1="59" y1="2.5" x2="59" y2="137.05" fill="none" stroke="#494949" stroke-miterlimit="10"/><line x1="59" y1="20.95" x2="220" y2="20.95" fill="none" stroke="#494949" stroke-miterlimit="10"/></svg>